<?xml version="1.0" encoding="utf-8"?>
<!-- Generator: Adobe Illustrator 24.0.1, SVG Export Plug-In . SVG Version: 6.00 Build 0)  -->
<svg version="1.1" id="图层_1" xmlns="http://www.w3.org/2000/svg" xmlns:xlink="http://www.w3.org/1999/xlink" x="0px" y="0px"
	 viewBox="0 0 500 500" style="enable-background:new 0 0 500 500;" xml:space="preserve">
<style type="text/css">
	.st0{fill:#1E53E6;}
	.st1{fill:#E4372D;}
</style>
<path class="st0" d="M105.5,129.9c1.6,2.5,3.1,5,4.6,7.5h0.1c5.3-7.4,11.1-14.5,17.6-21.2c35.6-36.8,85.5-56.6,136.6-54.2
	c44.4,2.1,85.9,20.3,117.5,52c33.7,33.7,52.2,78.4,52.2,126s-18.5,92.3-52.2,126c-33.6,33.7-78.4,52.2-126,52.2s-92.3-18.5-126-52.2
	c-7.3-7.3-13.9-15.1-19.7-23.4h-0.1c-1.5,2.5-3,5-4.6,7.5c-6.2,9.6-4.9,22.2,3,30.4c11.2,11.7,23.9,22.3,38.2,31.6
	c21.4,13.9,45.5,23.4,70.6,28c68.4,12.5,135.2-8.6,182.7-56.1c38.5-38.5,59.6-89.6,59.6-144S438.4,134.5,400,96
	c-47.5-47.5-114.4-68.7-182.8-56.1C192.1,44.5,168,54.1,146.6,68c-14.2,9.2-26.9,19.8-38,31.5C100.6,107.7,99.3,120.3,105.5,129.9z"
	/>
<path class="st0" d="M68.6,103.8c0,0,82.5,51,32.1,183.5c0,0-27.5,70.5-23.2,98.8c0,0-73.5-51-37.8-137.8S69.1,143.2,68.6,103.8z"/>
<path class="st0" d="M189.6,370l51.2-51.2c4.4-4.4,4.2-11.5-0.2-16l-0.1-0.1l-47.4-47.4c-8.5-8.5-8.5-22.4,0-30.9l47.4-47.4
	c0.4-0.4,0.9-0.8,1.4-1.2l70.6-70.6c-16.8-7.1-35.2-11.1-54.6-11.3c-80.5-1-147.8,65.3-147.9,145.7
	C109.9,296.6,142.3,345.9,189.6,370z"/>
<path class="st1" d="M322.2,109.9L271.1,161c-4.4,4.5-4.2,11.6,0.2,16l0.1,0.1l47.4,47.4c8.5,8.5,8.5,22.4,0,30.9l-47.4,47.4
	c-0.6,0.6-1.2,1.1-1.8,1.6l-70.2,70.2c16.8,7.1,35.2,11.1,54.6,11.3c80.5,1,147.8-65.3,147.9-145.8
	C401.9,183.3,369.5,134.1,322.2,109.9z"/>
</svg>
